# xmcd
#
# Track frame offsets: 
#        150
#        13932
#        26983
#        41669
#        54174
#        66754
#        80438
#        94066
#        106243
#        119839
#        133137
#        147045
#        160510
#        175398
#        188501
#        202104
#        216158
#        230835
#        244197
#        257271
#        269259
#        281082
#        293395
#        306268
#
# Disc length: 4269 seconds
#
# Revision: 1
# Processed by: cddbd v1.5.2PL0 Copyright (c) Steve Scherf et al.
# Submitted via: ExactAudioCopyFreeDBPlugin 1.0
#
DISCID=6110ab18
DTITLE=Various Artist - Daisy Martin and Ozie McPherson: Complete Recorded Work
DTITLE=s (1921-1926)
DYEAR=1997
DGENRE=Blues
TTITLE0=Daisy Martin - Royal Garden Blues
TTITLE1=Daisy Martin - Spread Yo' Stuff
TTITLE2=Daisy Martin - Play 'Em for Mama Sing 'Em for Me
TTITLE3=Daisy Martin - I Won't Be Back 'Till You Change Your Ways
TTITLE4=Daisy Martin - Won't Someone Help Me Find My Lovin' Man?
TTITLE5=Daisy Martin - Everybody's Man Is My Man
TTITLE6=Daisy Martin - How Long? How Long? (Absent Blues)
TTITLE7=Daisy Martin - Sweet Daddy
TTITLE8=Daisy Martin - Honolulu Lou
TTITLE9=Daisy Martin - I Didn't Start In to Love You (Until You Stoppe
TTITLE9=d Loving Me)
TTITLE10=Daisy Martin - Nightmare Blues
TTITLE11=Daisy Martin - Keep On Going (When You Get Where You're Going
TTITLE11=You Won't Be Missed at All)
TTITLE12=Daisy Martin - Brown Skin (Who You For)
TTITLE13=Daisy Martin - If You Don't Want Me (Please Don't Dog Me 'Rou
TTITLE13=nd)
TTITLE14=Daisy Martin - Feelin' Blues
TTITLE15=Daisy Martin - What You Was - You Used to Be (But You Ain't N
TTITLE15=o More)
TTITLE16=Ozie McPherson - You Gotta Know How
TTITLE17=Ozie McPherson - Outside of That He's All Right with Me
TTITLE18=Ozie McPherson - Standing on the Corner Blues
TTITLE19=Ozie McPherson - He's My Man
TTITLE20=Ozie McPherson - Down to the Bottom Where I Stay
TTITLE21=Ozie McPherson - I Want My Loving
TTITLE22=Ozie McPherson - Nobody Rolls Their Jelly Roll Like Mine
TTITLE23=Ozie McPherson - I'm So Blue Since My Sweetie Went Away
EXTD=
EXTT0=
EXTT1=
EXTT2=
EXTT3=
EXTT4=
EXTT5=
EXTT6=
EXTT7=
EXTT8=
EXTT9=
EXTT10=
EXTT11=
EXTT12=
EXTT13=
EXTT14=
EXTT15=
EXTT16=
EXTT17=
EXTT18=
EXTT19=
EXTT20=
EXTT21=
EXTT22=
EXTT23=
PLAYORDER=
